<mxfile host="app.diagrams.net" modified="2021-02-23T08:55:36.347Z" agent="5.0 (Macintosh; Intel Mac OS X 11_1_0) AppleWebKit/537.36 (KHTML, like Gecko) Chrome/88.0.4324.182 Safari/537.36" etag="LKaiwzrFxRMxM3G-ITbM" version="14.4.2" type="github">
  <diagram id="aMUQxdpyylIwop_GiHNT" name="Page-1">
    <mxGraphModel dx="946" dy="557" grid="1" gridSize="10" guides="1" tooltips="1" connect="1" arrows="1" fold="1" page="1" pageScale="1" pageWidth="827" pageHeight="1169" math="0" shadow="0">
      <root>
        <mxCell id="0" />
        <mxCell id="1" parent="0" />
        <mxCell id="x-sAqreTKorJo0LX9ExR-1" value="" style="strokeWidth=1;shadow=0;dashed=0;align=center;html=1;shape=mxgraph.mockup.containers.browserWindow;rSize=0;strokeColor=#666666;strokeColor2=#008cff;strokeColor3=#c4c4c4;mainText=,;recursiveResize=0;" vertex="1" parent="1">
          <mxGeometry x="130" y="640" width="550" height="430" as="geometry" />
        </mxCell>
        <mxCell id="x-sAqreTKorJo0LX9ExR-2" value="Page 1" style="strokeWidth=1;shadow=0;dashed=0;align=center;html=1;shape=mxgraph.mockup.containers.anchor;fontSize=17;fontColor=#666666;align=left;" vertex="1" parent="x-sAqreTKorJo0LX9ExR-1">
          <mxGeometry x="60" y="12" width="110" height="26" as="geometry" />
        </mxCell>
        <mxCell id="x-sAqreTKorJo0LX9ExR-3" value="https://www.draw.io" style="strokeWidth=1;shadow=0;dashed=0;align=center;html=1;shape=mxgraph.mockup.containers.anchor;rSize=0;fontSize=17;fontColor=#666666;align=left;" vertex="1" parent="x-sAqreTKorJo0LX9ExR-1">
          <mxGeometry x="130" y="60" width="250" height="26" as="geometry" />
        </mxCell>
        <mxCell id="x-sAqreTKorJo0LX9ExR-4" value="Click here to move the broom to the right" style="strokeWidth=1;shadow=0;dashed=0;align=center;html=1;shape=mxgraph.mockup.buttons.button;strokeColor=#666666;fontColor=#ffffff;mainText=;buttonStyle=round;fontSize=17;fontStyle=1;fillColor=#008cff;whiteSpace=wrap;" vertex="1" parent="x-sAqreTKorJo0LX9ExR-1">
          <mxGeometry x="30" y="130" width="150" height="90" as="geometry" />
        </mxCell>
        <mxCell id="x-sAqreTKorJo0LX9ExR-6" value="" style="shape=image;html=1;verticalAlign=top;verticalLabelPosition=bottom;labelBackgroundColor=#ffffff;imageAspect=0;aspect=fixed;image=https://cdn2.iconfinder.com/data/icons/free-color-halloween-icons/24/Broom-128.png" vertex="1" parent="x-sAqreTKorJo0LX9ExR-1">
          <mxGeometry x="370" y="160" width="128" height="128" as="geometry" />
        </mxCell>
        <mxCell id="x-sAqreTKorJo0LX9ExR-10" value="Click here to move the broom to the left" style="strokeWidth=1;shadow=0;dashed=0;align=center;html=1;shape=mxgraph.mockup.buttons.button;strokeColor=#666666;fontColor=#ffffff;mainText=;buttonStyle=round;fontSize=17;fontStyle=1;fillColor=#008cff;whiteSpace=wrap;" vertex="1" parent="x-sAqreTKorJo0LX9ExR-1">
          <mxGeometry x="30" y="250" width="150" height="90" as="geometry" />
        </mxCell>
      </root>
    </mxGraphModel>
  </diagram>
</mxfile>
